<svg width="293" height="294" viewBox="0 0 293 294" fill="none" xmlns="http://www.w3.org/2000/svg">
<mask id="mask0_59_1081" style="mask-type:alpha" maskUnits="userSpaceOnUse" x="0" y="0" width="293" height="293">
<circle cx="146.02" cy="146.686" r="146.02" fill="#D9D9D9"/>
</mask>
<g mask="url(#mask0_59_1081)">
<path d="M226.07 267.239C225.4 267.718 224.634 268.197 223.963 268.676C223.197 269.154 222.527 269.633 221.761 270.016C221.091 270.399 220.516 270.782 219.846 271.165C219.75 271.261 219.654 271.261 219.559 271.357C217.356 272.697 215.058 273.942 212.76 275.091C212.09 275.474 211.324 275.857 210.654 276.144C210.654 276.144 210.558 276.24 210.462 276.24C209.696 276.623 208.93 277.006 208.164 277.389C206.632 278.155 205.004 278.825 203.472 279.496C202.706 279.879 201.845 280.166 201.079 280.453C200.313 280.74 199.451 281.123 198.685 281.411C197.919 281.698 197.057 282.081 196.291 282.368C196.291 282.368 196.291 282.368 196.195 282.368C195.429 282.655 194.568 282.943 193.802 283.23C192.078 283.804 190.259 284.379 188.535 284.953C187.961 285.145 187.29 285.336 186.716 285.528C184.897 286.102 183.077 286.581 181.258 286.964C180.588 287.156 179.918 287.251 179.152 287.443C177.428 287.826 175.609 288.209 173.885 288.592C173.502 288.688 173.215 288.688 172.832 288.783C172.257 288.879 171.587 288.975 171.013 289.071C170.151 289.166 169.385 289.358 168.523 289.454C168.14 289.549 167.757 289.549 167.374 289.645C166.895 289.741 166.321 289.837 165.746 289.837C164.214 290.028 162.586 290.22 161.054 290.411C160.576 290.507 160.001 290.507 159.522 290.603H159.427C158.756 290.698 158.086 290.699 157.416 290.794C156.746 290.89 156.075 290.89 155.405 290.89C155.022 290.89 154.543 290.986 154.16 290.986C153.394 290.986 152.724 291.082 152.054 291.082C151.096 291.082 150.235 291.177 149.277 291.177C148.319 291.177 147.458 291.177 146.5 291.177C145.83 291.177 145.16 291.177 144.489 291.177C104.082 290.603 67.7924 273.463 41.8437 246.27C41.8437 246.27 41.8437 246.174 41.7479 246.174C38.8754 243.589 41.3649 229.8 52.9509 221.087C67.5051 210.076 102.359 203.182 102.359 203.182C102.359 203.182 115.86 200.979 165.938 211.416C195.238 217.544 217.548 226.449 229.996 250.579C232.581 255.558 235.166 263.218 226.07 267.239Z" fill="white"/>
<path d="M166.225 210.363C184.609 214.097 204.238 218.119 219.367 230.279C224.442 234.396 227.793 240.429 230.57 246.27C231.911 249.142 233.251 252.111 234.304 255.27C234.879 257.377 235.741 259.771 235.262 262.26C235.166 262.93 234.592 263.792 234.113 264.271C231.911 266.473 229.517 267.814 227.123 269.537C213.048 279.304 196.866 286.198 180.109 289.837C142.766 297.976 102.359 291.656 69.5159 272.027C58.6002 265.42 48.5463 257.377 39.9286 247.897C38.9711 246.748 38.9711 244.833 38.9711 243.589C39.0669 240.716 39.8329 237.939 40.7904 235.354C43.0884 229.417 46.0568 223.481 51.1316 219.363C54.7702 216.874 58.696 214.767 62.7175 213.044C75.3568 207.682 88.6662 203.947 102.359 202.415C103.508 202.32 103.699 203.947 102.55 204.139C89.4322 206.82 76.41 210.842 64.2496 216.299C59.845 218.502 55.1532 220.417 51.6103 223.864C48.259 227.502 45.8652 232.003 43.9502 236.599C42.7054 239.376 41.8437 243.78 42.2267 245.982C48.259 253.164 55.3447 259.483 63.0048 264.941C104.944 294.241 168.619 296.156 213.239 271.74C217.261 269.537 221.186 267.048 224.921 264.463C226.74 263.218 228.655 262.164 230.091 260.728C230.187 260.632 230.091 260.728 230.091 260.824C230.091 260.92 229.996 261.015 229.996 261.015C230.091 259.866 229.708 258.334 229.23 256.802C227.506 251.249 224.729 245.408 221.761 240.333C217.069 232.769 209.122 227.981 201.079 224.151C195.525 221.566 189.684 219.555 183.748 217.64C177.811 215.725 171.779 214.097 165.746 212.661C164.214 212.278 164.693 210.076 166.225 210.363Z" fill="black"/>
<path d="M87.0385 206.149C90.3898 212.086 103.125 235.928 105.136 256.994L117.009 261.015C117.009 261.015 108.008 221.182 91.9218 202.702C91.9218 202.702 90.0068 201.841 87.613 203.468C86.847 204.139 86.4639 205.192 87.0385 206.149Z" fill="black"/>
<path d="M188.918 257.281C188.918 257.281 189.492 230.758 178.002 213.331C177.715 212.852 178.098 212.182 178.672 212.278C179.438 212.469 180.587 212.756 182.407 213.618C185.471 215.054 195.429 230.279 196.291 255.27C196.291 255.174 189.875 257.281 188.918 257.281Z" fill="black"/>
<path d="M221.665 232.386C216.686 227.119 201.653 219.268 199.068 219.459C199.163 219.651 199.163 219.938 199.259 220.225C203.281 234.684 200.025 254.313 185.375 257.568C170.151 260.92 157.416 261.398 126.871 258.334C104.465 256.132 83.3995 236.024 72.6754 216.108C71.6221 214.097 70.3773 212.086 69.0368 210.267C68.2708 209.692 66.8345 209.788 65.7812 210.65C63.1002 212.852 59.5574 212.661 59.5574 214.767C59.5574 214.767 39.258 221.087 32.1724 265.611C28.1508 290.794 22.5015 323.445 22.31 334.553H240.336C238.804 319.615 240.336 253.068 221.665 232.386Z" fill="black"/>
<path d="M219.846 234.109C216.973 231.236 213.239 229.034 209.696 226.928C206.441 225.013 202.419 222.906 199.068 221.949L201.27 218.884L201.366 219.459C204.047 230.662 203.472 243.971 195.717 253.164C193.036 256.228 189.11 258.43 185.088 259.1C177.62 260.632 169.864 261.494 162.203 261.494C148.798 261.398 135.585 260.345 122.371 258.526C112.987 256.515 104.274 251.823 96.7094 245.982C86.0809 237.748 77.942 226.928 70.3777 215.916C69.3244 214.384 68.0796 212.948 66.7391 211.703L67.2179 212.278C67.4094 212.469 67.5051 212.373 67.4094 212.373C67.4094 212.373 67.2179 212.373 67.1221 212.469C67.0264 212.469 67.0264 212.469 66.9306 212.661C65.3986 214.001 62.909 214.671 61.377 215.533C61.4728 215.533 61.6643 214.959 61.6643 214.863L59.9407 217.161L59.6535 217.257L59.2705 217.448C46.1525 224.534 39.8329 241.386 36.3858 255.174C33.0345 270.878 31.0237 287.06 28.3427 302.859C26.8107 313.391 24.8956 324.211 24.4169 334.648L21.9273 332.159H240.337L237.943 334.84C235.932 308.316 236.986 254.504 219.846 234.109ZM223.485 230.758C241.965 252.302 240.816 306.401 242.826 334.361C242.922 335.701 241.965 336.946 240.624 337.042C240.528 337.233 22.4061 336.946 22.3103 337.042C20.9698 337.042 19.8208 335.989 19.8208 334.648C20.0123 328.999 20.7783 323.541 21.4486 318.179C23.6509 302.093 26.3319 286.102 28.9172 270.112C30.545 259.387 32.7473 248.376 37.0561 238.226C41.3649 228.172 47.7803 217.64 58.1215 212.756C58.313 212.661 58.5045 212.565 58.7917 212.469L57.0682 214.767C56.9724 211.416 60.611 210.554 62.909 209.597C64.4411 208.735 65.6858 207.49 67.6009 207.49C68.5584 207.394 70.2819 207.777 71.0479 208.926C72.3884 211.607 73.5375 214.288 74.6865 216.969C76.6015 221.278 79.0911 225.3 81.9636 229.034C92.3048 242.152 106.285 253.642 122.945 256.994C128.499 257.951 134.244 258.143 139.798 258.621C154.831 259.675 169.959 259.866 184.609 256.228C188.056 255.462 191.025 253.642 193.227 250.961C199.738 242.727 199.738 230.662 196.866 220.895L196.674 220.129C196.195 218.693 197.344 217.065 198.876 217.065C201.653 217.161 203.76 218.501 206.249 219.555C212.377 222.619 218.41 225.874 223.485 230.758Z" fill="black"/>
<path d="M191.217 267.909C175.513 274.612 123.903 276.144 97.6672 261.973C81.1022 253.068 70.378 233.439 65.2074 225.874C61.3773 220.129 59.4623 214.767 59.4623 214.767C59.4623 212.661 63.1008 212.852 65.6861 210.65C66.7394 209.788 68.1757 209.692 68.9417 210.267C70.2822 212.182 71.527 214.097 72.5803 216.108C83.3044 235.928 100.252 255.845 126.776 258.334C157.32 261.207 170.055 260.92 185.28 257.568C199.93 254.313 203.185 234.684 199.164 220.225C199.068 220.034 199.068 219.746 198.972 219.459C201.558 219.268 206.537 219.746 208.356 224.342C208.452 224.342 215.825 257.472 191.217 267.909Z" fill="white"/>
<path d="M191.791 269.25C185.471 271.835 178.864 272.793 172.257 273.559C165.651 274.325 159.044 274.612 152.437 274.612C135.872 274.42 119.02 272.888 103.412 266.952C85.6022 260.536 74.112 244.354 64.5368 229.034C61.6643 224.821 58.9832 220.512 57.3555 215.629C56.8767 214.384 57.6427 212.661 58.696 211.895C60.1323 210.746 61.76 210.746 63.1963 210.171C64.1538 209.884 64.7283 209.309 65.5901 208.831C67.1221 208.16 68.8457 207.586 70.7607 208.448C81.7721 232.481 99.8692 255.462 128.212 257.472C146.979 259.196 166.129 261.111 184.705 256.802C192.174 255.557 197.057 248.855 198.781 241.769C200.696 234.588 200.121 226.832 198.11 219.746C197.919 219.076 198.398 218.406 199.068 218.406C203.185 218.023 208.26 219.842 209.696 224.151C211.324 232.768 211.324 241.578 208.835 249.908C206.345 258.43 200.025 265.898 191.791 269.25ZM190.642 266.569C198.302 263.505 203.951 256.994 206.536 249.238C209.122 241.386 209.409 232.673 207.781 224.534C206.632 221.374 202.611 220.033 199.164 220.512L200.121 219.172C203.377 231.428 202.706 249.046 190.546 256.419C188.822 257.377 186.907 258.047 184.992 258.43C181.258 259.196 177.428 259.866 173.694 260.345C158.469 261.973 143.149 260.728 128.02 259.483C102.071 258.143 82.0594 237.748 70.9522 215.725C70.1862 214.001 69.3244 212.373 68.4626 210.65L68.6541 210.841C67.2179 209.98 65.6858 211.99 64.3453 212.469C63.1006 213.139 61.76 213.427 60.7068 214.097C60.5153 214.288 60.4195 214.48 60.4195 214.767V214.48C62.6218 220.512 66.6434 225.97 70.0904 231.332C78.8038 244.737 89.3365 258.238 104.848 263.792C126.488 272.41 168.427 274.516 190.642 266.569Z" fill="black"/>
<path d="M175.225 235.833C173.214 245.695 160.192 251.632 138.265 242.727C115.476 233.535 105.613 211.608 103.124 205.096C116.625 179.818 107.241 162.296 107.241 162.296C138.36 159.614 165.554 196 165.554 196L169.767 214.001C170.15 215.533 170.916 216.874 172.065 217.831C174.076 221.374 176.47 229.513 175.225 235.833Z" fill="white"/>
<path d="M102.646 205.384C104.465 202.607 105.614 199.351 106.38 196.192C107.816 189.585 108.295 182.882 108.391 176.179V173.69C108.103 171.2 107.242 168.615 106.284 166.317C105.039 163.253 109.54 161.338 110.976 164.402C111.167 164.785 111.167 165.455 111.167 165.838C111.455 178.86 112.029 195.617 103.795 206.437C103.22 207.011 102.071 206.15 102.646 205.384Z" fill="black"/>
<path d="M166.607 195.809C168.044 196.67 168.522 197.819 168.714 198.968C169.288 201.266 169.097 203.756 169.671 206.15C170.15 208.448 171.586 210.65 171.969 213.044C172.448 215.533 173.884 220.8 174.459 223.385C174.65 223.96 174.267 224.63 173.597 224.726C173.214 224.821 172.927 224.726 172.64 224.534C171.395 223.481 170.82 222.428 170.054 221.087C168.81 218.789 167.948 216.682 167.182 214.097C166.512 211.799 166.799 209.31 166.224 206.916C165.746 204.618 164.405 202.415 163.926 200.022C163.639 198.873 163.543 197.628 164.405 196.192C164.98 195.617 165.937 195.426 166.607 195.809Z" fill="black"/>
<path d="M173.502 221.087C155.213 220.129 140.276 214.384 125.722 188.436C137.978 199.256 152.436 203.373 167.661 205.288L169.672 214.097C170.055 215.629 172.353 220.129 173.502 221.087Z" fill="black"/>
<path d="M172.736 217.544C175.992 223.672 177.907 231.332 175.896 238.131C174.364 242.918 169.959 246.461 165.172 247.802C154.065 250.77 141.234 246.078 131.371 240.812C119.211 234.014 110.21 222.619 104.465 210.171C104.082 209.214 105.423 208.448 105.997 209.405C108.008 213.427 110.306 217.353 112.891 220.896C115.477 224.534 118.445 227.885 121.796 230.854C131.563 239.663 144.777 245.121 157.99 245.121C171.587 244.738 176.758 237.556 173.598 224.343C173.119 222.236 172.353 220.034 171.3 218.215C170.725 217.448 172.162 216.587 172.736 217.544Z" fill="black"/>
<path d="M209.792 102.547C211.515 110.59 212.377 117.101 207.685 138.549C203.089 159.902 214.292 164.306 187.769 198.49C176.949 212.469 150.713 208.544 129.456 194.085C122.275 189.202 119.211 176.658 113.848 167.753C109.635 160.764 107.72 168.041 102.167 162.008C94.6024 153.774 85.506 137.209 90.0063 107.909C97.2835 60.4158 134.914 54.8622 162.778 60.1286C190.833 65.4907 205.196 81.3854 209.792 102.547Z" fill="white"/>
<path d="M106.954 170.53C104.752 166.796 101.88 163.54 99.1985 160.093C96.6132 156.55 94.5067 152.625 92.7831 148.603C81.3887 120.644 85.7933 81.2897 113.753 64.8204C125.339 58.1178 139.318 56.49 152.341 57.5433C180.204 59.554 205.77 72.3848 211.802 101.876C215.058 114.898 210.653 128.304 208.164 141.039C207.015 147.358 207.972 153.869 207.877 160.381C207.781 166.987 205.962 173.594 203.472 179.722C201.94 183.935 199.259 187.67 196.482 191.117C191.886 196.67 187.29 202.32 181.449 206.629C180.109 207.586 177.715 208.065 176.087 208.256C171.587 208.927 167.182 209.118 162.682 208.831C145.064 208.065 126.2 199.543 119.115 182.499C118.828 181.829 119.785 181.35 120.168 181.925C129.36 196.479 146.213 203.66 162.969 204.618C168.14 204.905 173.406 204.809 178.481 203.756C180.97 202.511 183.173 200.309 185.279 198.298C190.45 193.128 195.716 187.574 199.45 181.254C203.951 172.732 206.44 163.445 205.674 153.774C205.483 149.465 205.387 144.965 206.249 140.656C207.015 136.347 207.972 132.23 208.547 127.825C209.121 123.612 209.409 119.303 209.409 115.09C208.93 102.738 204.908 90.0031 197.057 80.4279C179.726 58.8838 138.744 53.2344 115.668 67.9802C101.114 76.9808 94.3152 93.8331 92.1129 110.207C88.7616 129.836 89.7191 149.178 105.327 163.445L109.923 168.232C111.742 170.339 108.486 172.828 106.954 170.53Z" fill="black"/>
<path d="M118.253 140.081C118.253 140.081 115.284 125.718 101.305 127.442C89.24 128.974 85.0269 157.891 112.412 165.934" fill="white"/>
<path d="M111.167 153.391C108.965 152.146 107.433 150.039 107.337 147.454C107.433 145.539 107.72 143.337 107.242 141.422C106.954 139.602 105.039 139.124 103.603 139.219C102.071 139.507 101.114 141.422 100.826 142.954C100.826 143.049 100.731 143.337 100.731 143.433C100.635 143.911 99.8688 143.911 99.6773 143.433C98.4325 139.698 101.209 135.581 105.231 136.06C110.88 136.443 111.646 142.379 110.593 146.88C110.018 148.795 110.784 150.518 111.838 152.146L112.029 152.433C112.508 153.008 111.742 153.774 111.167 153.391Z" fill="black"/>
<path d="M187.769 129.931C189.205 136.73 191.886 143.049 195.237 148.986C198.205 156.263 190.545 163.157 183.747 162.87C182.981 162.87 182.885 161.817 183.555 161.625C187.864 160.285 191.79 157.412 192.46 153.008C192.748 151.667 192.365 150.518 191.694 149.369C188.535 143.432 186.62 136.634 187.098 129.931C187.098 129.453 187.769 129.453 187.769 129.931Z" fill="black"/>
<path d="M117.774 140.177C115.572 134.528 110.784 129.165 104.369 129.261C103.795 129.165 102.837 129.357 102.263 129.357C100.635 129.453 99.2942 130.027 98.0495 131.176C91.9214 137.304 92.9746 148.124 97.9537 154.923C99.6773 157.316 101.88 159.423 104.369 161.147C106.859 162.87 109.635 164.211 112.604 165.36C113.274 165.551 112.987 166.604 112.316 166.509C105.901 165.168 99.773 162.008 95.5599 156.742C89.0488 148.89 87.7083 135.772 95.4642 128.112C97.1877 126.58 99.5815 125.431 101.975 125.431C102.741 125.431 103.89 125.24 104.656 125.431C108.678 125.623 112.508 127.633 114.998 130.793C117.2 133.474 118.445 136.73 118.828 139.985C118.828 140.56 117.966 140.751 117.774 140.177Z" fill="black"/>
<path d="M180.588 167.753C184.131 165.647 187.29 169.477 185.375 172.828C184.897 173.786 184.322 174.456 183.652 175.222L183.556 172.924C187.099 175.988 186.237 180.584 182.12 182.499C181.45 182.786 178.29 183.744 178.29 182.595C178.29 182.308 178.481 182.116 178.768 182.116C181.162 182.02 184.418 179.627 183.46 176.946C183.173 176.275 182.503 175.509 181.928 175.222C181.258 174.839 181.067 174.073 181.45 173.403C182.216 172.541 184.035 171.583 184.035 169.956C183.843 168.519 182.407 168.041 181.067 168.519C180.492 168.807 180.109 168.041 180.588 167.753Z" fill="black"/>
<path d="M152.054 139.698C149.756 139.602 148.032 137.687 148.224 135.389L148.319 132.708C148.415 130.41 150.33 128.687 152.628 128.878C154.926 128.974 156.65 130.889 156.458 133.187L156.363 135.868C156.267 138.07 154.352 139.794 152.054 139.698Z" fill="black"/>
<path d="M192.365 141.135C190.258 141.039 188.631 139.219 188.726 137.113L188.822 134.623C188.918 132.517 190.737 130.889 192.844 130.985C194.95 131.081 196.578 132.9 196.482 135.006L196.387 137.496C196.291 139.602 194.471 141.23 192.365 141.135Z" fill="black"/>
<path d="M160.671 134.528C157.512 132.421 154.065 130.985 150.235 131.751C148.99 131.942 147.745 132.325 146.979 133.187C146.692 133.57 146.021 133.474 146.021 132.9C146.117 130.985 147.745 129.74 149.277 128.974C152.245 127.442 156.363 127.729 159.044 129.74C160.001 130.315 163.257 133.857 161.533 134.623C161.15 134.815 160.959 134.719 160.671 134.528Z" fill="black"/>
<path d="M188.056 135.006C188.056 130.985 193.035 129.549 196.1 130.985C197.823 131.751 199.068 133.283 199.547 135.102C199.738 135.677 198.876 136.155 198.493 135.677C196.866 133.762 194.089 132.804 191.886 133.953C191.216 134.336 191.12 134.623 190.929 135.006C190.929 136.921 188.152 136.826 188.056 135.006Z" fill="black"/>
<path d="M165.268 118.729C167.278 119.399 169.289 117.58 168.906 115.377C168.715 114.228 168.236 113.079 167.278 112.217C164.406 109.632 152.533 107.334 145.351 110.685C139.032 113.749 156.075 115.665 165.268 118.729Z" fill="black"/>
<path d="M193.898 120.261C192.27 120.835 190.546 119.112 190.834 117.101C190.929 116.047 191.312 114.994 192.078 114.228C194.376 111.93 202.228 110.111 207.207 113.654C211.516 116.622 201.366 117.484 193.898 120.261Z" fill="black"/>
<path d="M212.952 94.3118C214.771 93.5458 212.761 82.0556 214.388 81.0023C215.346 61.9478 217.644 68.2674 194.281 56.2027C156.554 36.6693 103.795 44.6167 84.1661 68.7461C67.5053 89.0455 72.3887 99.6739 68.1756 114.037C64.0583 127.921 45.4825 128.304 54.0044 157.029C58.3132 171.583 40.9821 179.244 44.8122 203.756C71.5269 215.725 99.3906 221.374 127.829 223.098C135.585 204.043 111.647 199.734 111.36 171.296C111.36 169.381 111.455 167.562 111.647 165.838C85.1236 157.508 89.4325 129.165 101.401 127.633C109.732 126.58 114.136 131.272 116.339 135.198C116.53 135.772 116.817 136.251 117.105 136.826C120.743 143.049 139.989 137.4 152.916 122.367C166.8 106.281 165.747 107.526 172.736 97.8546C186.812 78.5128 200.217 91.0563 204.047 93.067C215.729 99.0036 204.622 87.1304 205.771 88.6625C210.654 95.2693 206.154 97.6631 212.952 94.3118Z" fill="black"/>
<path d="M117.104 136.634C116.817 136.155 116.53 135.581 116.338 135.006C116.625 135.581 116.913 136.155 117.104 136.634Z" fill="black"/>
<path d="M205.77 90.4817C208.164 104.366 226.07 92.8755 217.835 67.6928C213.048 53.0428 195.621 49.7872 177.811 53.5215C147.17 59.9369 196.866 52.564 199.93 74.6826C201.462 85.9813 203.472 77.0764 205.77 90.4817Z" fill="black"/>
<path d="M193.323 152.05C193.323 152.05 194.472 158.561 202.036 161.817C203.951 162.583 205.962 161.338 205.962 159.232C205.866 159.232 193.802 152.816 193.323 152.05Z" fill="black"/>
<path d="M134.148 152.05C134.148 152.05 137.691 160.093 148.32 162.008C158.948 164.019 168.619 156.359 173.119 143.528C173.119 143.528 169.481 155.401 154.927 157.604C140.564 159.997 134.148 152.05 134.148 152.05Z" fill="black"/>
<path d="M175.226 134.145C174.939 147.837 163.928 158.849 150.618 158.849C137.309 158.849 126.68 147.837 126.68 134.145C126.776 120.356 137.787 109.058 151.288 109.058C164.789 109.058 175.609 120.356 175.226 134.145Z" stroke="black" stroke-width="3" stroke-miterlimit="10" stroke-linecap="round" stroke-linejoin="round"/>
<path d="M188.344 130.985C189.876 118.633 197.919 108.962 207.398 108.962C217.644 108.962 225.495 120.261 224.921 134.049C224.346 147.741 215.729 158.753 205.675 158.753C201.941 158.753 198.589 157.316 195.812 154.731" stroke="black" stroke-width="3" stroke-miterlimit="10" stroke-linecap="round" stroke-linejoin="round"/>
<path d="M126.967 131.464H113.37" stroke="black" stroke-width="3" stroke-miterlimit="10" stroke-linecap="round" stroke-linejoin="round"/>
<path d="M175.322 131.464C175.322 131.464 186.716 127.059 188.152 131.464" stroke="black" stroke-width="3" stroke-miterlimit="10" stroke-linecap="round" stroke-linejoin="round"/>
<path d="M275.956 81.3854C334.078 193.319 231.91 319.615 110.114 288.783C55.4402 275.187 11.4902 227.79 2.39382 172.158C-7.94736 116.814 17.0438 57.3518 63.7706 26.041C127.828 -18.0048 216.59 -3.35479 262.455 59.6498C262.743 59.937 262.647 60.4158 262.264 60.7031C261.977 60.9903 261.498 60.8946 261.21 60.5116C254.891 52.3727 247.71 44.9998 239.858 38.3929C226.931 27.3815 211.803 18.7638 195.812 12.923C114.423 -16.5685 25.087 32.4563 7.27715 117.58C-12.8307 212.948 68.2709 300.752 164.98 287.634C239.571 278.251 295.011 209.405 288.883 134.528C287.542 116.431 282.755 98.525 274.807 82.0557C274.616 81.7684 274.807 81.3854 275.094 81.1939C275.382 81.0024 275.765 81.0982 275.956 81.3854Z" fill="black"/>
</g>
</svg>
