<svg width="131" height="130" viewBox="0 0 131 130" fill="none" xmlns="http://www.w3.org/2000/svg">
<g clip-path="url(#clip0_151_347)">
<path d="M46.7109 131.016C58.7969 131.016 68.5469 121.266 68.5469 109.18V87.3438H46.7109C34.625 87.3438 24.875 97.0938 24.875 109.18C24.875 121.266 34.625 131.016 46.7109 131.016Z" fill="#0ACF83"/>
<path d="M24.875 65.5078C24.875 53.4219 34.625 43.6719 46.7109 43.6719H68.5469V87.3438H46.7109C34.625 87.3438 24.875 77.5937 24.875 65.5078Z" fill="#A259FF"/>
<path d="M24.875 21.8359C24.875 9.75 34.625 0 46.7109 0H68.5469V43.6719H46.7109C34.625 43.6719 24.875 33.9219 24.875 21.8359Z" fill="#F24E1E"/>
<path d="M68.5469 0H90.3828C102.469 0 112.219 9.75 112.219 21.8359C112.219 33.9219 102.469 43.6719 90.3828 43.6719H68.5469V0Z" fill="#FF7262"/>
<path d="M112.219 65.5078C112.219 77.5937 102.469 87.3438 90.3828 87.3438C78.2969 87.3438 68.5469 77.5937 68.5469 65.5078C68.5469 53.4219 78.2969 43.6719 90.3828 43.6719C102.469 43.6719 112.219 53.4219 112.219 65.5078Z" fill="#1ABCFE"/>
</g>
<defs>
<clipPath id="clip0_151_347">
<rect width="130" height="130" fill="white" transform="translate(0.5)"/>
</clipPath>
</defs>
</svg>
