<svg width="40" height="41" viewBox="0 0 40 41" fill="none" xmlns="http://www.w3.org/2000/svg">
<path d="M13 12.6667H6.33333C5.44928 12.6667 4.60143 13.0179 3.97631 13.643C3.35119 14.2681 3 15.1159 3 16V32.6667C3 33.5507 3.35119 34.3986 3.97631 35.0237C4.60143 35.6488 5.44928 36 6.33333 36H33C33.8841 36 34.7319 35.6488 35.357 35.0237C35.9821 34.3986 36.3333 33.5507 36.3333 32.6667V16C36.3333 15.1159 35.9821 14.2681 35.357 13.643C34.7319 13.0179 33.8841 12.6667 33 12.6667H26.3333M13 12.6667V7C13 6.73478 13.1054 6.48043 13.2929 6.29289C13.4804 6.10536 13.7348 6 14 6H25.3333C25.5985 6 25.8529 6.10536 26.0404 6.29289C26.228 6.48043 26.3333 6.73478 26.3333 7V12.6667M13 12.6667H26.3333" stroke="black" stroke-width="3"/>
</svg>
